<svg xmlns="http://www.w3.org/2000/svg" viewBox="0 0 512 512" role="img" aria-labelledby="title desc">
  <title id="title">Capivara logo</title>
  <desc id="desc">A stylized capybara with spectral stripes on a deep blue badge.</desc>
  <defs>
    <linearGradient id="bg" x1="64" y1="64" x2="448" y2="448" gradientUnits="userSpaceOnUse">
      <stop offset="0" stop-color="#1b3650"/>
      <stop offset="1" stop-color="#294f69"/>
    </linearGradient>
    <linearGradient id="fur" x1="105" y1="146" x2="388" y2="372" gradientUnits="userSpaceOnUse">
      <stop offset="0" stop-color="#d7a24c"/>
      <stop offset="1" stop-color="#a66a1a"/>
    </linearGradient>
    <filter id="shadow" x="-20%" y="-20%" width="140%" height="140%">
      <feDropShadow dx="0" dy="8" stdDeviation="10" flood-color="#0d1b27" flood-opacity="0.35"/>
    </filter>
  </defs>

  <rect x="36" y="36" width="440" height="440" rx="120" fill="url(#bg)"/>

  <g opacity="0.18">
    <rect x="324" y="96" width="40" height="40" rx="10" fill="#f6f0df"/>
    <rect x="372" y="96" width="40" height="40" rx="10" fill="#f6f0df"/>
    <rect x="324" y="144" width="40" height="40" rx="10" fill="#f6f0df"/>
    <rect x="372" y="144" width="40" height="40" rx="10" fill="#f6f0df"/>
  </g>

  <g filter="url(#shadow)">
    <ellipse cx="286" cy="294" rx="150" ry="92" fill="url(#fur)" stroke="#102432" stroke-width="12"/>
    <circle cx="176" cy="220" r="80" fill="url(#fur)" stroke="#102432" stroke-width="12"/>
    <circle cx="208" cy="148" r="29" fill="#a96a1c" stroke="#102432" stroke-width="10"/>
    <circle cx="208" cy="148" r="12" fill="#d9a85c"/>
    <ellipse cx="106" cy="240" rx="48" ry="34" fill="#f0d7a2" stroke="#102432" stroke-width="10"/>
    <circle cx="150" cy="212" r="8" fill="#102432"/>
    <ellipse cx="72" cy="245" rx="7" ry="5" fill="#102432"/>

    <rect x="192" y="358" width="24" height="58" rx="12" fill="#102432"/>
    <rect x="248" y="364" width="24" height="54" rx="12" fill="#102432"/>
    <rect x="314" y="364" width="24" height="54" rx="12" fill="#102432"/>
    <rect x="370" y="354" width="24" height="60" rx="12" fill="#102432"/>

    <path d="M408 274q32 10 42 34" fill="none" stroke="#102432" stroke-linecap="round" stroke-width="12"/>

    <path d="M212 267C250 252 304 252 358 270" fill="none" stroke="#80b7ff" stroke-linecap="round" stroke-width="14"/>
    <path d="M220 297C266 284 318 286 366 304" fill="none" stroke="#547fff" stroke-linecap="round" stroke-width="14"/>
    <path d="M232 326C280 317 328 320 374 336" fill="none" stroke="#ffde38" stroke-linecap="round" stroke-width="14"/>
  </g>
</svg>
